{
  "boundary": "Provisional package manifest only. Not a final release until autonomous QA, production audio/license evidence, AV sync, and release checks pass.",
  "completion_claim": false,
  "created_at_utc": "2026-07-01T10:15:18+00:00",
  "evidence": {
    "av_sync_validation_report": "av_sync_validation_report.json",
    "human_review_decision": "human_review_decision.json",
    "rendered_media_drop_manifest": "rendered_media_drop_manifest.json"
  },
  "final_media": {
    "audio_mix": {
      "audio_codec": "pcm_s16le",
      "duration_seconds": 10.0,
      "ffprobe": {
        "format": {
          "bit_rate": "768035",
          "duration": "10.000000",
          "filename": "/home/ubuntu/ComfyUI/user/default/Wave42_Project_Package/Implementation/final_media_inbox/release_scene_03/final_audio_mix_provisional.wav",
          "format_long_name": "WAV / WAVE (Waveform Audio)",
          "format_name": "wav",
          "nb_programs": 0,
          "nb_streams": 1,
          "probe_score": 99,
          "size": "960044"
        },
        "streams": [
          {
            "avg_frame_rate": "0/0",
            "bit_rate": "768000",
            "bits_per_sample": 16,
            "channels": 1,
            "codec_long_name": "PCM signed 16-bit little-endian",
            "codec_name": "pcm_s16le",
            "codec_tag": "0x0001",
            "codec_tag_string": "[1][0][0][0]",
            "codec_type": "audio",
            "disposition": {
              "attached_pic": 0,
              "captions": 0,
              "clean_effects": 0,
              "comment": 0,
              "default": 0,
              "dependent": 0,
              "descriptions": 0,
              "dub": 0,
              "forced": 0,
              "hearing_impaired": 0,
              "karaoke": 0,
              "lyrics": 0,
              "metadata": 0,
              "non_diegetic": 0,
              "original": 0,
              "still_image": 0,
              "timed_thumbnails": 0,
              "visual_impaired": 0
            },
            "duration": "10.000000",
            "duration_ts": 480000,
            "index": 0,
            "initial_padding": 0,
            "r_frame_rate": "0/0",
            "sample_fmt": "s16",
            "sample_rate": "48000",
            "time_base": "1/48000"
          }
        ]
      },
      "fps": null,
      "height": null,
      "path": "final_audio_mix_provisional.wav",
      "sha256": "65ded4d70ec8b68cc04672df16edb411f593ec8c527c3bd2987d5e0e44deaadb",
      "size_bytes": 960044,
      "video_codec": "",
      "width": null
    },
    "keyframes": [
      {
        "path": "KF_INIT.png",
        "sha256": "9d526b45a660c80d584e153e5a7431ea7ef4c1bc83b94e08b652208e572cb71c",
        "size_bytes": 1114334
      },
      {
        "path": "KF_MID.png",
        "sha256": "4d2e1237bd318161786eb1d2d4c73e91479dcfd1d2ddaadf038058d745a70982",
        "size_bytes": 1022207
      },
      {
        "path": "KF_END.png",
        "sha256": "9b5e02983bdd8a82706854d642e2181edb58fb150b1fbae4772e3d53db6ff072",
        "size_bytes": 1079610
      }
    ],
    "stems": [
      {
        "audio_codec": "pcm_s16le",
        "duration_seconds": 10.0,
        "ffprobe": {
          "format": {
            "bit_rate": "768035",
            "duration": "10.000000",
            "filename": "/home/ubuntu/ComfyUI/user/default/Wave42_Project_Package/Implementation/final_media_inbox/release_scene_03/dialogue_procedural_provisional.wav",
            "format_long_name": "WAV / WAVE (Waveform Audio)",
            "format_name": "wav",
            "nb_programs": 0,
            "nb_streams": 1,
            "probe_score": 99,
            "size": "960044"
          },
          "streams": [
            {
              "avg_frame_rate": "0/0",
              "bit_rate": "768000",
              "bits_per_sample": 16,
              "channels": 1,
              "codec_long_name": "PCM signed 16-bit little-endian",
              "codec_name": "pcm_s16le",
              "codec_tag": "0x0001",
              "codec_tag_string": "[1][0][0][0]",
              "codec_type": "audio",
              "disposition": {
                "attached_pic": 0,
                "captions": 0,
                "clean_effects": 0,
                "comment": 0,
                "default": 0,
                "dependent": 0,
                "descriptions": 0,
                "dub": 0,
                "forced": 0,
                "hearing_impaired": 0,
                "karaoke": 0,
                "lyrics": 0,
                "metadata": 0,
                "non_diegetic": 0,
                "original": 0,
                "still_image": 0,
                "timed_thumbnails": 0,
                "visual_impaired": 0
              },
              "duration": "10.000000",
              "duration_ts": 480000,
              "index": 0,
              "initial_padding": 0,
              "r_frame_rate": "0/0",
              "sample_fmt": "s16",
              "sample_rate": "48000",
              "time_base": "1/48000"
            }
          ]
        },
        "fps": null,
        "height": null,
        "path": "dialogue_procedural_provisional.wav",
        "sha256": "c5f604eadbd5e153b017ae2af4c979ad658c648d99e07b254b43aacd3c1c182c",
        "size_bytes": 960044,
        "video_codec": "",
        "width": null
      },
      {
        "audio_codec": "pcm_s16le",
        "duration_seconds": 10.0,
        "ffprobe": {
          "format": {
            "bit_rate": "768035",
            "duration": "10.000000",
            "filename": "/home/ubuntu/ComfyUI/user/default/Wave42_Project_Package/Implementation/final_media_inbox/release_scene_03/sfx_foley_original_generated.wav",
            "format_long_name": "WAV / WAVE (Waveform Audio)",
            "format_name": "wav",
            "nb_programs": 0,
            "nb_streams": 1,
            "probe_score": 99,
            "size": "960044"
          },
          "streams": [
            {
              "avg_frame_rate": "0/0",
              "bit_rate": "768000",
              "bits_per_sample": 16,
              "channels": 1,
              "codec_long_name": "PCM signed 16-bit little-endian",
              "codec_name": "pcm_s16le",
              "codec_tag": "0x0001",
              "codec_tag_string": "[1][0][0][0]",
              "codec_type": "audio",
              "disposition": {
                "attached_pic": 0,
                "captions": 0,
                "clean_effects": 0,
                "comment": 0,
                "default": 0,
                "dependent": 0,
                "descriptions": 0,
                "dub": 0,
                "forced": 0,
                "hearing_impaired": 0,
                "karaoke": 0,
                "lyrics": 0,
                "metadata": 0,
                "non_diegetic": 0,
                "original": 0,
                "still_image": 0,
                "timed_thumbnails": 0,
                "visual_impaired": 0
              },
              "duration": "10.000000",
              "duration_ts": 480000,
              "index": 0,
              "initial_padding": 0,
              "r_frame_rate": "0/0",
              "sample_fmt": "s16",
              "sample_rate": "48000",
              "time_base": "1/48000"
            }
          ]
        },
        "fps": null,
        "height": null,
        "path": "sfx_foley_original_generated.wav",
        "sha256": "a9e14beacd8ef15fc983af60f8fd266cf38f21434285907ff22ae59e37a51312",
        "size_bytes": 960044,
        "video_codec": "",
        "width": null
      },
      {
        "audio_codec": "pcm_s16le",
        "duration_seconds": 10.0,
        "ffprobe": {
          "format": {
            "bit_rate": "768035",
            "duration": "10.000000",
            "filename": "/home/ubuntu/ComfyUI/user/default/Wave42_Project_Package/Implementation/final_media_inbox/release_scene_03/music_original_generated_bed.wav",
            "format_long_name": "WAV / WAVE (Waveform Audio)",
            "format_name": "wav",
            "nb_programs": 0,
            "nb_streams": 1,
            "probe_score": 99,
            "size": "960044"
          },
          "streams": [
            {
              "avg_frame_rate": "0/0",
              "bit_rate": "768000",
              "bits_per_sample": 16,
              "channels": 1,
              "codec_long_name": "PCM signed 16-bit little-endian",
              "codec_name": "pcm_s16le",
              "codec_tag": "0x0001",
              "codec_tag_string": "[1][0][0][0]",
              "codec_type": "audio",
              "disposition": {
                "attached_pic": 0,
                "captions": 0,
                "clean_effects": 0,
                "comment": 0,
                "default": 0,
                "dependent": 0,
                "descriptions": 0,
                "dub": 0,
                "forced": 0,
                "hearing_impaired": 0,
                "karaoke": 0,
                "lyrics": 0,
                "metadata": 0,
                "non_diegetic": 0,
                "original": 0,
                "still_image": 0,
                "timed_thumbnails": 0,
                "visual_impaired": 0
              },
              "duration": "10.000000",
              "duration_ts": 480000,
              "index": 0,
              "initial_padding": 0,
              "r_frame_rate": "0/0",
              "sample_fmt": "s16",
              "sample_rate": "48000",
              "time_base": "1/48000"
            }
          ]
        },
        "fps": null,
        "height": null,
        "path": "music_original_generated_bed.wav",
        "sha256": "df743754556612f09f57fdce9b47716fd743a287a6a85320782b9da8a9548f66",
        "size_bytes": 960044,
        "video_codec": "",
        "width": null
      },
      {
        "audio_codec": "pcm_s16le",
        "duration_seconds": 10.0,
        "ffprobe": {
          "format": {
            "bit_rate": "768035",
            "duration": "10.000000",
            "filename": "/home/ubuntu/ComfyUI/user/default/Wave42_Project_Package/Implementation/final_media_inbox/release_scene_03/final_audio_mix_provisional.wav",
            "format_long_name": "WAV / WAVE (Waveform Audio)",
            "format_name": "wav",
            "nb_programs": 0,
            "nb_streams": 1,
            "probe_score": 99,
            "size": "960044"
          },
          "streams": [
            {
              "avg_frame_rate": "0/0",
              "bit_rate": "768000",
              "bits_per_sample": 16,
              "channels": 1,
              "codec_long_name": "PCM signed 16-bit little-endian",
              "codec_name": "pcm_s16le",
              "codec_tag": "0x0001",
              "codec_tag_string": "[1][0][0][0]",
              "codec_type": "audio",
              "disposition": {
                "attached_pic": 0,
                "captions": 0,
                "clean_effects": 0,
                "comment": 0,
                "default": 0,
                "dependent": 0,
                "descriptions": 0,
                "dub": 0,
                "forced": 0,
                "hearing_impaired": 0,
                "karaoke": 0,
                "lyrics": 0,
                "metadata": 0,
                "non_diegetic": 0,
                "original": 0,
                "still_image": 0,
                "timed_thumbnails": 0,
                "visual_impaired": 0
              },
              "duration": "10.000000",
              "duration_ts": 480000,
              "index": 0,
              "initial_padding": 0,
              "r_frame_rate": "0/0",
              "sample_fmt": "s16",
              "sample_rate": "48000",
              "time_base": "1/48000"
            }
          ]
        },
        "fps": null,
        "height": null,
        "path": "final_audio_mix_provisional.wav",
        "sha256": "65ded4d70ec8b68cc04672df16edb411f593ec8c527c3bd2987d5e0e44deaadb",
        "size_bytes": 960044,
        "video_codec": "",
        "width": null
      }
    ],
    "video": {
      "audio_codec": "aac",
      "duration_seconds": 10.0,
      "ffprobe": {
        "format": {
          "bit_rate": "649766",
          "duration": "10.000000",
          "filename": "/home/ubuntu/ComfyUI/user/default/Wave42_Project_Package/Implementation/final_media_inbox/release_scene_03/release_scene_03_final_video_candidate.mp4",
          "format_long_name": "QuickTime / MOV",
          "format_name": "mov,mp4,m4a,3gp,3g2,mj2",
          "nb_programs": 0,
          "nb_streams": 2,
          "probe_score": 100,
          "size": "812208",
          "start_time": "0.000000",
          "tags": {
            "compatible_brands": "isomiso2avc1mp41",
            "encoder": "Lavf60.16.100",
            "major_brand": "isom",
            "minor_version": "512"
          }
        },
        "streams": [
          {
            "avg_frame_rate": "8/1",
            "bit_rate": "496253",
            "bits_per_raw_sample": "8",
            "chroma_location": "left",
            "closed_captions": 0,
            "codec_long_name": "H.264 / AVC / MPEG-4 AVC / MPEG-4 part 10",
            "codec_name": "h264",
            "codec_tag": "0x31637661",
            "codec_tag_string": "avc1",
            "codec_type": "video",
            "coded_height": 704,
            "coded_width": 1280,
            "color_primaries": "bt709",
            "color_range": "tv",
            "color_space": "bt709",
            "color_transfer": "bt709",
            "disposition": {
              "attached_pic": 0,
              "captions": 0,
              "clean_effects": 0,
              "comment": 0,
              "default": 1,
              "dependent": 0,
              "descriptions": 0,
              "dub": 0,
              "forced": 0,
              "hearing_impaired": 0,
              "karaoke": 0,
              "lyrics": 0,
              "metadata": 0,
              "non_diegetic": 0,
              "original": 0,
              "still_image": 0,
              "timed_thumbnails": 0,
              "visual_impaired": 0
            },
            "duration": "10.000000",
            "duration_ts": 163840,
            "extradata_size": 48,
            "field_order": "progressive",
            "film_grain": 0,
            "has_b_frames": 2,
            "height": 704,
            "id": "0x1",
            "index": 0,
            "is_avc": "true",
            "level": 31,
            "nal_length_size": "4",
            "nb_frames": "80",
            "pix_fmt": "yuv420p",
            "profile": "High",
            "r_frame_rate": "8/1",
            "refs": 1,
            "start_pts": 0,
            "start_time": "0.000000",
            "tags": {
              "encoder": "Lavc60.31.102 libx264",
              "handler_name": "VideoHandler",
              "language": "und",
              "vendor_id": "[0][0][0][0]"
            },
            "time_base": "1/16384",
            "width": 1280
          },
          {
            "avg_frame_rate": "0/0",
            "bit_rate": "149050",
            "bits_per_sample": 0,
            "channel_layout": "mono",
            "channels": 1,
            "codec_long_name": "AAC (Advanced Audio Coding)",
            "codec_name": "aac",
            "codec_tag": "0x6134706d",
            "codec_tag_string": "mp4a",
            "codec_type": "audio",
            "disposition": {
              "attached_pic": 0,
              "captions": 0,
              "clean_effects": 0,
              "comment": 0,
              "default": 1,
              "dependent": 0,
              "descriptions": 0,
              "dub": 0,
              "forced": 0,
              "hearing_impaired": 0,
              "karaoke": 0,
              "lyrics": 0,
              "metadata": 0,
              "non_diegetic": 0,
              "original": 0,
              "still_image": 0,
              "timed_thumbnails": 0,
              "visual_impaired": 0
            },
            "duration": "10.000000",
            "duration_ts": 480000,
            "extradata_size": 5,
            "id": "0x2",
            "index": 1,
            "initial_padding": 0,
            "nb_frames": "470",
            "profile": "LC",
            "r_frame_rate": "0/0",
            "sample_fmt": "fltp",
            "sample_rate": "48000",
            "start_pts": 0,
            "start_time": "0.000000",
            "tags": {
              "handler_name": "SoundHandler",
              "language": "und",
              "vendor_id": "[0][0][0][0]"
            },
            "time_base": "1/48000"
          }
        ]
      },
      "fps": 8.0,
      "height": 704,
      "path": "release_scene_03_final_video_candidate.mp4",
      "sha256": "65a69b8f16a92e0a119f68698b45537076c58da647113d37cb78e8bb352e4718",
      "size_bytes": 812208,
      "video_codec": "h264",
      "width": 1280
    }
  },
  "final_release_package_created": false,
  "release_id": "W42_PROVISIONAL_20260701_101322",
  "scene_id": "release_scene_03",
  "status": "provisional_machine_package_autonomous_qa_rejected"
}
